<svg version="1.1" xmlns="http://www.w3.org/2000/svg" xmlns:xlink="http://www.w3.org/1999/xlink">
<title>Workiva</title>
<g style="fill:#66CC00">
	<!-- W -->
	<path d="
		M 42.1, 110.2
		L 24.8, 59.1
		H 0.0
		L 28.1, 140.2
		H 56.7
		L 68.0, 105.7
		L 55.6, 69.7
		L 42.1, 110.2
		Z
		M 135.3, 0.0
		L 99.2, 110.2
		L 83.9, 59.1
		H 59.4
		L 87.5, 139.9
		H 113.6
		L 162.7, 0.0
		H 135.3
		Z"/>
	<!-- o -->
	<path d="
		M 183.9, 142.2
		C 158.2, 142.2, 138.8, 126.0, 138.8, 99.9
		C 138.8, 73.8, 158.3, 57.6, 183.9, 57.6
		S 229.0, 73.7, 229.0, 100.1
		S 209.7, 142.2, 183.9, 142.2
		Z
		M 183.9, 78.4
		C 172.4, 78.4, 165.4, 87.5, 165.4, 99.5
		C 165.4, 111.5, 172.2, 120.6, 183.9, 120.6
		C 195.6, 120.6, 202.4, 111.5, 202.4, 99.5
		C 202.4, 87.5, 195.6, 78.3, 183.9, 78.3
		V 78.4
		Z"/>
	<!-- r -->
	<path d="
		M 289.3, 83.2
		C 285.8, 81.5, 282.0, 80.7, 278.1, 81.1
		C 273.1, 81.1, 268.3, 83.4, 265.1, 87.2
		C 262.0, 92.3, 260.6, 98.2, 261.0, 104.1
		V 139.9
		H 236.5
		V 59.1
		H 261.0
		V 70.6
		H 261.3
		C 264.7, 62.6, 272.7, 57.4, 281.4, 57.6
		C 284.2, 57.5, 287.0, 58.0, 289.5, 59.2
		L 289.3, 83.2
		Z"/>
	<!-- k -->
	<path d="
		M 339.6, 95.4
		L 379.2, 58.9
		H 346.2
		L 320.7, 82.8
		V 22.6
		H 297.4
		V 139.9
		H 321.0
		V 107.6
		L 352.6, 139.9
		H 384.2
		L 339.6, 95.4
		Z"/>
	<!-- i -->
	<path d="
		M 413.1, 139.9
		H 386.8
		V 59.1
		H 413.1
		V 139.9
		Z
		M 386.9, 52.4
		V 22.5
		H 419.1
		L 386.9, 52.4
		Z"/>
	<!-- v -->
	<path d="
		M 510.8, 59.0
		L 477.4, 139.8
		H 453.3
		L 420.1, 59.0
		H 447.4
		L 465.8, 110.1
		L 484.0, 58.9
		L 510.8, 59.0
		Z"/>
	<!-- a -->
	<path d="
		M 589.5, 139.9
		H 564.5
		L 564.0, 131.6
		C 558.2, 138.2, 549.7, 142.0, 540.9, 142.0
		C 526.6, 142.0, 511.4, 134.3, 511.4, 116.1
		C 511.4, 97.9, 528.0, 91.9, 543.0, 91.2
		L 563.4, 90.4
		V 88.6
		C 563.4, 80.0, 557.3, 75.5, 546.7, 75.5
		C 537.9, 75.8, 529.4, 78.3, 521.8, 82.8
		L 514.9, 65.6
		C 525.7, 60.4, 537.5, 57.6, 549.4, 57.5
		C 564.6, 57.5, 573.3, 61.0, 579.7, 67.0
		C 586.1, 73.1, 589.2, 80.9, 589.2, 94.6
		L 589.5, 139.9
		Z
		M 563.3, 104.5
		L 550.3, 105.3
		C 542.2, 105.6, 537.4, 109.2, 537.4, 115.2
		S 542.5, 125.2, 549.8, 125.2
		C 555.2, 125.2, 560.3, 122.4, 563.3, 117.8
		L 563.3, 104.5
		Z"/>
</g>
</svg>
